#!OML:ASF E:\id_vita\Project 1\Capture day 1\Session 1\Female.ASF
:FULLY-SPECIFIED
:DEGREES
1226
root 21.8637 16.7266 -5.63669 -150.196 -10.6448 -182.274
lowerback -16.6681 -2.38155 -1.85355
upperback -7.54922 -4.04662 2.46059
thorax 1.57295 -2.42667 2.9006
lowerneck -1.44569 -1.46346 -9.73379
upperneck -1.55073 -1.83915 4.14484
head -0.104232 -0.893825 3.0308
rclavicle 7.95139e-015 2.62396e-014
rhumerus 68.6603 -1.32828 -53.5339
rradius 45.7344
rwrist 23.2737
rhand -28.0968 20.5359
rfingers 7.12502
rthumb -1.47938 -9.43869
lclavicle 7.95139e-015 2.62396e-014
lhumerus 78.9762 -5.77128 42.8467
lradius 29.0339
lwrist -24.5911
lhand -37.9229 36.854
lfingers 7.12502
lthumb -10.9649 66.5477
rfemur -36.6714 2.97716 23.5979
rtibia 21.2042
rfoot -8.38511 -11.3062
rtoes -7.21121
lfemur -13.2569 -12.1667 -16.9563
ltibia 24.3964
lfoot 3.89229 -7.89909
ltoes -6.6593
1227
root 21.8622 16.7252 -5.62865 -150.279 -10.5541 -182.317
lowerback -16.7108 -2.26617 -1.92136
upperback -7.51494 -3.87182 2.28208
thorax 1.61166 -2.3383 2.78
lowerneck -1.28916 -1.53905 -9.68375
upperneck -1.63734 -1.95142 4.29407
head -0.149689 -0.94882 3.07346
rclavicle -2.61899e-014 4.45278e-014
rhumerus 68.1958 -1.49872 -53.3058
rradius 45.77
rwrist 23.0358
rhand -28.2379 20.488
rfingers 7.12502
rthumb -1.61564 -9.48564
lclavicle -2.61899e-014 4.45278e-014
lhumerus 79.0836 -5.94565 41.8967
lradius 29.4056
lwrist -23.6472
lhand -38.0228 37.5893
lfingers 7.12502
lthumb -11.0613 67.2779
rfemur -36.6402 2.96006 23.5432
rtibia 21.2718
rfoot -8.43086 -11.2858
rtoes -6.6527
lfemur -13.1961 -12.3258 -17.0367
ltibia 24.4233
lfoot 3.91111 -7.80098
ltoes -6.73257
1228
root 21.8603 16.7208 -5.61819 -150.319 -10.4845 -182.378
lowerback -16.6898 -2.06688 -2.11166
upperback -7.52486 -3.57065 2.03064
thorax 1.56395 -2.18626 2.68011
lowerneck -1.20833 -1.73039 -9.09862
upperneck -1.62146 -2.21845 4.09796
head -0.147569 -1.08477 2.89322
rclavicle 1.91827e-014 -2.38542e-014
rhumerus 67.4557 -1.90238 -53.1194
rradius 45.86
rwrist 23.079
rhand -28.2638 20.6659
rfingers 7.12502
rthumb -1.64072 -9.30757
lclavicle 1.91827e-014 -2.38542e-014
lhumerus 79.774 -6.69711 42.3487
lradius 29.0325
lwrist -24.3983
lhand -37.9111 38.0804
lfingers 7.12502
lthumb -10.9535 67.7747
rfemur -36.6764 2.87467 23.5396
rtibia 21.3468
rfoot -8.30396 -11.315
rtoes -7.80508
lfemur -13.1758 -12.2086 -17.1401
ltibia 24.4304
lfoot 3.8814 -8.01599
ltoes -7.35856
1229
root 21.8582 16.7199 -5.61026 -150.379 -10.4196 -182.355
lowerback -16.6496 -1.76273 -2.31145
upperback -7.53238 -3.12775 1.72571
thorax 1.49776 -1.96347 2.55551
lowerneck -0.990763 -2.01187 -8.10203
upperneck -1.78157 -2.61892 3.81877
head -0.225019 -1.28761 2.61172
rclavicle 2.45996e-014 -3.18055e-015
rhumerus 66.3798 -2.14582 -51.8672
rradius 46.1085
rwrist 20.7111
rhand -29.2741 19.9246
rfingers 7.12502
rthumb -2.61644 -10.0391
lclavicle 2.45996e-014 -3.18055e-015
lhumerus 80.5945 -7.73834 43.1916
lradius 28.5928
lwrist -25.6485
lhand -37.952 38.3451
lfingers 7.12502
lthumb -10.993 68.0372
rfemur -36.6809 2.98793 23.5108
rtibia 21.407
rfoot -8.22982 -11.4251
rtoes -8.07583
lfemur -13.1374 -12.3372 -17.1488
ltibia 24.4494
lfoot 3.8856 -8.03996
ltoes -7.61978
1230
root 21.8559 16.7218 -5.60539 -150.474 -10.296 -182.327
lowerback -16.6811 0.0134855 -2.7272
upperback -7.57008 -0.672428 0.0679403
thorax 1.29536 -0.753392 1.48547
lowerneck 0.357908 -3.72403 -4.02236
upperneck -2.48624 -4.96826 3.03679
head -0.647096 -2.4856 1.64512
rclavicle 2.13694e-014 -7.95139e-016
rhumerus 62.1123 -5.88125 -49.799
rradius 46.2671
rwrist 18.5219
rhand -30.6651 20.2338
rfingers 7.12502
rthumb -3.9597 -9.70915
lclavicle 2.13694e-014 -7.95139e-016
lhumerus 84.4809 -11.7634 42.7852
lradius 28.9143
lwrist -25.3148
lhand -37.7214 38.4293
lfingers 7.12502
lthumb -10.7706 68.1332
rfemur -36.6149 3.09478 23.4594
rtibia 21.4372
rfoot -8.26943 -11.4124
rtoes -7.78877
lfemur -13.0442 -12.5091 -17.1885
ltibia 24.47
lfoot 3.8782 -7.92769
ltoes -7.36034
